<svg xmlns="http://www.w3.org/2000/svg" width="295" height="122" viewBox="0 0 295 122">
  <defs>
    <style>
      .cls-1 {
        fill: #fff;
        fill-rule: evenodd;
      }
    </style>
  </defs>
  <path id="Лого_копия" data-name="Лого копия" class="cls-1" d="M77.17,57.574s0.073-1.785.51-2,6.552-14.57,5.605-16.5c0,0-6.042-3.857-15.287,5.5-1.092,2.357,1.529,1.5,1.529,1.5l5.1-3s1.456-1,1.019,1c-1.237,1.571-11.866,13.713-7.134,22,2.621,3.571,6.624,0,6.624,0a10.088,10.088,0,0,1,1.019-4c0.874-1.286,24.344-23.98,24.8-25L86.171,91.57s-0.8,4.071,1.019,6.5c2.111,3.571,5.605,5,6.624,4.5,1.674-.785,2.184-3.785,2.038-4.5s-1.456-2.785-1.019-5,5.1-23.5,5.1-23.5a6.615,6.615,0,0,0,5.1,0c2.766-1.143,14.777-9.285,15.8-11,0.583-.357-3.639,12.713,1.529,15.5,6.7,2.642,13.031-7.213,13.249-8s0.218-6.285-1.529-8c-0.509-.072,7.935-3.571,8.153-4s-3.931,22.926,8.154,27.5c6.114,0.714,7.5-4.285,7.643-5s0.946-7.785-1.019-10.5c-0.291-.928-4.805-5.428-4.586-6,0.218-.857,1.019-3.714,3.057-4,2.111,0.286,9.828-1.857,14.778-5,0.873-.572,2.4-0.572,2.548,1-0.219,1.643-4.805,6.642-3.058,12a6.434,6.434,0,0,0,7.134,3s3.567-1.143,4.586-8.5c-0.072-.857-0.509-6-0.509-6s-0.582-2.428,0-2.5,4.513,0.214,6.115-1,11.356-5.428,11.21-3-8.153,10.927-8.662,14c-1.384,0-2.548,7.642-2.039,8.5s1.092,6.213,7.644,4.5c1.529-.428,4.076-3.856,5.1-5-0.146-.5,9.172-13,9.172-13s1.019-.571,1.019,1-1.31,33.425-1.019,34,1.092,5.285,4.586,5c2.111-1.143,1.674-4.214,1.529-4.5s-1.456-7.213-1.529-8,0.51-13,.51-13,11.065-1.143,19.873-6.5c-0.728,8.428,4.222,9.285,5.605,9.5,2.548,0.286,6.115-5,6.115-5s1.893,7,7.134,7,8.153-5,8.153-5h0.51s-0.874,8.642,2.548,9c6.7,0.571,13.248-14.5,13.248-14.5s-0.145,7.642-5.605,21c-2.184.286-27.371-.643-35.16,17.5-1.893,7.642,5.605,10,5.605,10s13.686,2.643,22.421-5.5c8.444-5.142,15.8-25,15.8-25s13.1-42.638,13.758-42.495,0.655-2.857-1.019-2.5c-3.785-.071-5.6,2.642-5.6,3a82.646,82.646,0,0,1-6.115,13.5c-0.51.429-2.548-4.357-6.624-2.5-9.537,2.928-12.594,15.5-12.74,16a1.136,1.136,0,0,1-1.019.5s-5.605,5.142-7.643,0v-11.5s-0.728-3.285-3.567-3c0.145-1.071-1.02-3.5-1.02-3.5s-3.057-3.571-7.134-1.5c-4.295,1.285-7.57,10.856-7.643,13,0.582,0.714-13.176,7.142-17.326,6.5-2.329-.5-0.509-2.5-0.509-2.5a36.823,36.823,0,0,1,5.1-2.5c2.475-.928,10.045-4.142,9.681-9-0.072-1.214-1.6-3.5-5.6-3.5a26.3,26.3,0,0,0-8.663,2l-0.509-.5s0.291-3.357-3.058-3-6.114,5.5-6.114,5.5-8.59,12.713-11.211,12.5c-1.456.286,0-4.5,0-4.5s4.077-9.928,8.663-15.5c2.62-5.785-1.529-5.928-2.039-6-1.674-.286-5.095,1-5.095,1s-12.74,7.071-13.759,7a4.262,4.262,0,0,1-3.567-1.5,8.4,8.4,0,0,0-8.153.5c-3.494,2.357-12.594,6.713-13.249,6.5s-7.789-.571-10.7,1.5c-0.728-.214.51-6.5,0.51-6.5S173.962,30.363,173.817,3.08c0.218-.785-2.038-4.571-7.134-2.5-8.736,4.428-22.421,31.282-23.95,50.994-2.839,2.143-10.192,5-10.192,5s-3.421-3.785-6.114-3-6.115,4-6.115,4-11.866,8.5-14.778,9c-3.931,1.143-2.038-1.5-2.038-1.5a3.173,3.173,0,0,1,1.529-2c1.164-.5,14.34-13.427,14.268-17.5,0.072-.5-2.039-2.642-5.606-1a40.766,40.766,0,0,0-7.643,4.5c0,0.214-.8.571-1.019-1,0.364-.429,4.076-17,4.076-17s3.13-3.5,3.567-3.5,0.51-2.857-1.528-4c-4.587-.357-5.606,1.857-6.115,3S80.115,56.33,77.17,57.574Zm163.91,43.5c0,4.5,2.927,6.07,5.1,6.5,1.733,0,15.433,2.071,25.479-21C271.655,86.57,249.539,86.27,241.08,101.069ZM113.687,50.575c-0.218-.5,1.383-2.642-1.528-2.5,0,0-8.008,1-10.192,15,0.51,1.143.51,0,.51,0A71.4,71.4,0,0,0,113.687,50.575Zm15.8,9s-5.387,7.07-3.567,10a1.245,1.245,0,0,0,1.019.5S131.741,64.5,129.484,59.574Zm42.8-48.994c-0.073-.357.655-4.642-2.038-4s-16.234,14.784-20.893,40C149.357,46.575,165.445,34.577,172.288,10.58ZM149.867,64.573a33.316,33.316,0,0,1-2.548-4s-0.946,11,1.019,11.5a2.781,2.781,0,0,0,1.529-2S150.741,66.073,149.867,64.573Zm28.536-12.5s-4.441,8.071-3.567,9,1.529-.5,1.529-0.5S179.713,55.931,178.4,52.074Zm38.218,9.5s3.858-4.142,4.076-4,0.292-.928-2.038-1.5-3.421,3.071-3.567,3.5c0,0-.364,3.071.51,3A3.564,3.564,0,0,1,216.621,61.573Zm23.95-1c-0.874.143-.583,5.357,0.509,5.5s2.548-1.5,2.548-1.5l3.567-8S241.444,60.431,240.571,60.573Zm28.536,7.5c1.427,0.1,8.153-11,8.153-11S270.432,60.374,269.107,68.073Zm-187.86-36.5c-4.659-3.428-1.238-5.856-.51-8-6.843-3.571-32.612,24.5-32.612,24.5s3.858,9.142,24.459,39c13.613,18.427,22.494,23.283,23.95,24,5.605,2.429,10.046-1,10.191-1.5s0.947,0,1.529,0c2.985,6.214-2.985,10.285-5.1,11.5-18.708,8-42.058-36.824-43.313-39.5-2.111-3.214-13.831-25.711-15.287-29a41.647,41.647,0,0,0-10.191,21.5c0,0.286-2.621,1.714-9.172,1.5-2.839.071-3.713-3-3.057-4.5a166.45,166.45,0,0,0,14.268-41s2.184-7.213-1.529-7c-6.916-.5-25.77,13.141-32.613,21.5-3.2,2.571-2.038-5-2.038-5,8.808-11.356,31.521-18.855,37.2-19.5s8.08,1.428,7.644,2c1.546,4.62-6.678,32.27-7.116,33.464C38.434,54.4,64.963,25.188,79.718,20.078c2.912-1.071,9.391,0,8.153,4.5C87.507,25.292,86.634,31.22,81.247,31.577Z"/>
</svg>
