<svg xmlns="http://www.w3.org/2000/svg" width="388.219" height="70.5" viewBox="0 0 388.219 70.5">
  <defs>
    <style>
      .cls-1 {
        fill: #fff;
        fill-rule: evenodd;
      }
    </style>
  </defs>
  <path id="Logo" class="cls-1" d="M388.2,8.5a10.416,10.416,0,0,1-1.918,2.37,21.561,21.561,0,0,1-3.358,2.52,16.711,16.711,0,0,1-3.118,1.47,14.976,14.976,0,0,1-2.879.69,19.6,19.6,0,0,1-2.518.18,6.675,6.675,0,0,1-2.489-.42,1.182,1.182,0,0,1-.989-1.08,2.232,2.232,0,0,1,.12-0.63q0.118-.39.24-0.69a11.585,11.585,0,0,1,1.019-1.83,1.959,1.959,0,0,1,1.679-.99,0.578,0.578,0,0,1,.54.39,2.848,2.848,0,0,0,.659.84,4.816,4.816,0,0,0,1.38.84,7.1,7.1,0,0,0,2.7.39,5.9,5.9,0,0,0,2.248-.48,10.928,10.928,0,0,0,2.219-1.23,8.533,8.533,0,0,0,1.829-1.77,7.237,7.237,0,0,0,1.139-2.1,1.448,1.448,0,0,1,1.5-1.08c0.48,0,.7.321,0.66,0.96A4.2,4.2,0,0,1,388.2,8.5ZM362.3,39.91a3.894,3.894,0,0,0,1.919-.9,29.819,29.819,0,0,0,2.818-2.34q1.379-1.26,2.459-2.25t2.039-1.98q0.958-.99,1.888-2.1t2.009-2.67a12.329,12.329,0,0,0,.69-1.53q0.329-.869.689-1.8a14.62,14.62,0,0,1,.84-1.8,8.014,8.014,0,0,1,1.079-1.53,5.9,5.9,0,0,1,2.069-1.44,5.023,5.023,0,0,1,1.649-.36,1.188,1.188,0,0,1,.63.21,0.965,0.965,0,0,1,.329.87,6.606,6.606,0,0,1-.629,2.34,21.244,21.244,0,0,1-2.369,3.9,28.049,28.049,0,0,0-1.109,3q-0.572,1.8-1.11,3.54-0.178.661-.659,2.16t-0.93,3.06q-0.448,1.561-.809,2.85a9.9,9.9,0,0,0-.36,1.53c0,0.681.219,1.02,0.66,1.02a7.125,7.125,0,0,0,2.4-.45,21.032,21.032,0,0,0,2.639-1.17q1.378-.72,2.788-1.62t2.788-1.8l0.54,0.72a27.776,27.776,0,0,1-2.968,2.04q-1.95,1.2-4.467,2.76a35.041,35.041,0,0,1-5.337,2.7,10.148,10.148,0,0,1-3.118.78,0.933,0.933,0,0,1-.96-0.42,2.262,2.262,0,0,1-.18-0.9,8.755,8.755,0,0,1,.24-1.71q0.24-1.11.63-2.46t0.839-2.85q0.45-1.5.87-2.94,0.3-1.08.569-1.95t0.45-1.53c0.159-.48.3-0.92,0.42-1.32q-2.1,2.16-4.5,4.44-2.04,1.921-4.617,4.32t-5.4,4.62a8.447,8.447,0,0,1-2.039,1.29,3.9,3.9,0,0,1-1.2.33q-1.2,0-1.2-1.68a7.283,7.283,0,0,1,.059-0.9,8,8,0,0,1,.27-1.2q0.21-.72.57-1.77c0.071-.207.153-0.436,0.242-0.676-0.481.328-1.028,0.682-1.651,1.066q-1.948,1.2-4.467,2.76a35.041,35.041,0,0,1-5.337,2.7,10.141,10.141,0,0,1-3.118.78,0.931,0.931,0,0,1-.959-0.42,2.262,2.262,0,0,1-.18-0.9,8.755,8.755,0,0,1,.24-1.71q0.238-1.11.629-2.46t0.84-2.85q0.45-1.5.869-2.94,0.3-1.08.57-1.95t0.45-1.53c0.159-.48.3-0.92,0.419-1.32q-2.1,2.16-4.5,4.44-2.038,1.921-4.617,4.32t-5.4,4.62a8.444,8.444,0,0,1-2.038,1.29,3.912,3.912,0,0,1-1.2.33q-1.2,0-1.2-1.68a7.293,7.293,0,0,1,.06-0.9,7.759,7.759,0,0,1,.27-1.2c0.039-.133.082-0.277,0.129-0.427-0.749.6-1.515,1.185-2.318,1.747a41.836,41.836,0,0,1-3.628,2.28,20.914,20.914,0,0,1-3.657,1.62,11.1,11.1,0,0,1-3.448.6A8.746,8.746,0,0,1,311,48.34a5.207,5.207,0,0,1-1.979-1.02,7.319,7.319,0,0,1-1.709-2.13A14.226,14.226,0,0,1,306,41.59q-0.84-3.54-1.169-5.37t-0.63-2.91q-0.48.661-.929,1.29a9.406,9.406,0,0,0-.93,1.77q-0.42.9-.779,1.83t-0.66,1.65c-0.239.561-.46,1.1-0.659,1.62q-0.54,1.381-.87,2.07a3.994,3.994,0,0,1-.749,1.11,5.762,5.762,0,0,1-1.529.99,4.236,4.236,0,0,1-1.769.51,1.918,1.918,0,0,1-.99-0.18,0.735,0.735,0,0,1-.269-0.66,4.312,4.312,0,0,1,.3-1.14q0.3-.84,1.02-2.76,0.36-.9.629-1.68l0.54-1.56q0.27-.779.57-1.62t0.659-1.86q1.44-3.96,2.519-7.02t1.559-4.32q0.418-1.139.719-1.95a3.518,3.518,0,0,1,.78-1.29,3.57,3.57,0,0,1,.929-0.75,6.576,6.576,0,0,1,1.2-.54,10.374,10.374,0,0,1,1.229-.33,5.345,5.345,0,0,1,1.019-.12c0.279,0,.42.22,0.42,0.66a5.109,5.109,0,0,1-.42,1.5q-0.42,1.08-.839,2.04-1.021,2.52-1.859,4.71t-1.5,4.11l0.3,0.06q1.078-1.139,1.978-2.13t1.889-1.98q0.99-.99,2.189-2.04t2.818-2.37a21.731,21.731,0,0,1,2.519-1.74,20.241,20.241,0,0,1,2.638-1.32,15.551,15.551,0,0,1,2.548-.81,10.328,10.328,0,0,1,2.189-.27c0.159,0,.36.01,0.6,0.03a2.1,2.1,0,0,1,.689.18,1.547,1.547,0,0,1,.57.45,1.32,1.32,0,0,1,.24.84,5.174,5.174,0,0,1-1.349,2.76,18.134,18.134,0,0,1-4.767,3.84l-0.36-.54a4.317,4.317,0,0,0,1.559-1.98,5.578,5.578,0,0,0,.42-1.74q0-.84-1.2-0.84a8.055,8.055,0,0,0-2.758.69,15.224,15.224,0,0,0-3.718,2.25q-1.32,1.021-2.308,1.92t-1.649,1.62q-0.78.841-1.38,1.56h0.36a1.818,1.818,0,0,0,.3-0.03,1.91,1.91,0,0,1,.3-0.03,1.18,1.18,0,0,1,.629.21,1.313,1.313,0,0,1,.45.93q0.3,1.681.69,3.87t0.869,4.11a12.092,12.092,0,0,0,1.979,4.74,4.269,4.269,0,0,0,3.6,1.74,9.61,9.61,0,0,0,3.118-.51,15.852,15.852,0,0,0,2.848-1.29,26.515,26.515,0,0,0,2.489-1.62q1.139-.84,1.979-1.56l0.06,0.121c0.22-.608.5-1.326,0.839-2.161l3.238-8.22q0.9-2.28,1.5-3.99t1.079-2.73a6.476,6.476,0,0,1,1.17-1.74,6.927,6.927,0,0,1,1.439-1.17,6.509,6.509,0,0,1,1.439-.66,4.035,4.035,0,0,1,1.109-.21c0.279,0,.42.22,0.42,0.66-0.04.321-.111,0.78-0.21,1.38a11.861,11.861,0,0,1-.809,2.46l-3.658,9.42q-0.18.54-.54,1.41t-0.719,1.77q-0.36.9-.6,1.59a3.87,3.87,0,0,0-.24.87,3.673,3.673,0,0,0,.03.48q0.03,0.24.45,0.24a3.9,3.9,0,0,0,1.919-.9,29.946,29.946,0,0,0,2.818-2.34q1.378-1.26,2.458-2.25t2.039-1.98q0.959-.99,1.889-2.1t2.009-2.67a12.333,12.333,0,0,0,.689-1.53q0.33-.869.69-1.8a14.762,14.762,0,0,1,.839-1.8,8.062,8.062,0,0,1,1.08-1.53,5.9,5.9,0,0,1,2.068-1.44,5.028,5.028,0,0,1,1.649-.36,1.183,1.183,0,0,1,.63.21,0.965,0.965,0,0,1,.33.87,6.591,6.591,0,0,1-.63,2.34,21.172,21.172,0,0,1-2.368,3.9,28.248,28.248,0,0,0-1.11,3q-0.57,1.8-1.109,3.54-0.18.661-.659,2.16t-0.93,3.06q-0.45,1.561-.809,2.85a9.9,9.9,0,0,0-.36,1.53q0,1.021.659,1.02a7.135,7.135,0,0,0,2.4-.45,21.086,21.086,0,0,0,2.638-1.17q1.378-.72,2.789-1.62,1.325-.847,2.624-1.694l0.163-.406,3.238-8.22q0.9-2.28,1.5-3.99t1.08-2.73a6.45,6.45,0,0,1,1.169-1.74,6.953,6.953,0,0,1,1.439-1.17,6.53,6.53,0,0,1,1.439-.66,4.035,4.035,0,0,1,1.11-.21q0.418,0,.419.66-0.06.481-.21,1.38a11.861,11.861,0,0,1-.809,2.46l-3.658,9.42q-0.18.54-.539,1.41t-0.72,1.77q-0.36.9-.6,1.59a3.87,3.87,0,0,0-.24.87,3.855,3.855,0,0,0,.03.48Q361.88,39.911,362.3,39.91Zm-71.955.54a30.578,30.578,0,0,1-2.459,2.64,21.926,21.926,0,0,1-2.818,2.28,13.819,13.819,0,0,1-3.208,1.62,11.068,11.068,0,0,1-3.688.6,2.515,2.515,0,0,1-2.278-1.11,4.375,4.375,0,0,1-.72-2.43,13.01,13.01,0,0,1,.15-1.95,21.776,21.776,0,0,1,.45-2.16q0.3-1.17.809-2.61t1.23-3.24q0.418-1.02,1.019-2.31t1.319-2.61q0.72-1.319,1.439-2.58t1.38-2.22a20.655,20.655,0,0,1,1.349-1.8,13.944,13.944,0,0,1,1.5-1.56,9.46,9.46,0,0,1,1.469-1.08,2.666,2.666,0,0,1,1.319-.42,1,1,0,0,1,.54.15,0.5,0.5,0,0,1,.24.45,3.443,3.443,0,0,1-.75,1.56q-0.75,1.08-1.589,2.46-0.54.9-.929,1.68t-0.75,1.62q-0.36.841-.809,1.83t-1.05,2.43a9.088,9.088,0,0,1,2.639-1.77,8.314,8.314,0,0,1,3.537-.75,4.542,4.542,0,0,1,2.909.84,3.494,3.494,0,0,1,1.049,2.88,10.532,10.532,0,0,1-.81,3.48A13.255,13.255,0,0,1,290.345,40.45Zm-2.009-6.63a3.073,3.073,0,0,0-1.439-1.14,3.828,3.828,0,0,0-1.919-.18,7.251,7.251,0,0,0-2.068.63q-0.96,2.461-1.709,4.56a13.82,13.82,0,0,0-.75,4.68,2.111,2.111,0,0,0,.54,1.56,2.581,2.581,0,0,0,1.859.54,3.529,3.529,0,0,0,2.038-.78,8.984,8.984,0,0,0,1.979-2.01,11.7,11.7,0,0,0,1.469-2.7,7.858,7.858,0,0,0,.57-2.85A3.982,3.982,0,0,0,288.336,33.82ZM273.706,22.3a12.669,12.669,0,0,1-.87,1.71,26.979,26.979,0,0,1-1.739,2.52,25.933,25.933,0,0,0-1.109,3.09q-0.571,1.89-1.11,3.45-0.48,1.381-1.079,3.51a19.379,19.379,0,0,0-.6,5.19,8.788,8.788,0,0,0,.18,1.89q0.18,0.81.42,1.71t0.42,1.98a15.943,15.943,0,0,1,.18,2.58,14.348,14.348,0,0,1-1.23,5.34,41.706,41.706,0,0,1-2.938,5.82,38.8,38.8,0,0,1-3.6,5.04,16,16,0,0,1-3.209,3.06l-0.719-.06a30.929,30.929,0,0,0,2.7-3.3,32.46,32.46,0,0,0,2.489-4.08,29.59,29.59,0,0,0,1.829-4.38,13.658,13.658,0,0,0,.719-4.2,16.286,16.286,0,0,0-.3-3.3q-0.3-1.44-.659-2.64t-0.66-2.25a7.713,7.713,0,0,1-.3-2.13,19.275,19.275,0,0,1,.36-3.45q0.36-1.949.84-3.69,0.539-2.039,1.2-4.14-2.158,2.16-4.557,4.44-2.1,1.921-4.678,4.32t-5.276,4.62a6.93,6.93,0,0,1-2.069,1.32,4.6,4.6,0,0,1-1.169.3,0.924,0.924,0,0,1-1.02-.57,6.354,6.354,0,0,1-.18-1.77,9.121,9.121,0,0,1,.51-1.98c0.184-.565.411-1.214,0.673-1.933-0.49.336-1.052,0.7-1.692,1.093q-1.948,1.2-4.467,2.76a35.041,35.041,0,0,1-5.337,2.7,10.141,10.141,0,0,1-3.118.78,0.931,0.931,0,0,1-.959-0.42,2.262,2.262,0,0,1-.18-0.9,8.755,8.755,0,0,1,.24-1.71q0.238-1.11.629-2.46t0.84-2.85q0.45-1.5.869-2.94,0.3-1.08.57-1.95T235,32.89q0.238-.72.419-1.32-2.1,2.16-4.5,4.44-2.039,1.921-4.617,4.32t-5.4,4.62a8.444,8.444,0,0,1-2.038,1.29,3.912,3.912,0,0,1-1.2.33q-1.2,0-1.2-1.68a7.293,7.293,0,0,1,.06-0.9,7.759,7.759,0,0,1,.27-1.2c0.139-.48.33-1.07,0.569-1.77,0.084-.245.185-0.522,0.293-0.813-0.533.393-1.153,0.83-1.881,1.323a46.411,46.411,0,0,1-4.467,2.64q-3.238,1.68-5.4,2.58a9.552,9.552,0,0,1-3.058.9,0.933,0.933,0,0,1-.96-0.42,2.262,2.262,0,0,1-.18-0.9,8.217,8.217,0,0,1,.24-1.56q0.24-1.08.63-2.46t0.839-2.94q0.45-1.56.87-3,0.118-.419.33-1.11t0.449-1.35l0.54-1.62a14.914,14.914,0,0,1-1.859,1.2q-0.96.481-2.368,1.11A23.65,23.65,0,0,1,198,35.77a7.613,7.613,0,0,1-1.38.33,10.819,10.819,0,0,0-1.139.21,5.514,5.514,0,0,1-1.079.12q-0.121.72-.42,1.92t-0.719,2.46q-0.421,1.26-.93,2.4a5.925,5.925,0,0,1-2.878,3.06,3.944,3.944,0,0,1-1.469.3,1.415,1.415,0,0,1-1.23-.36,2.365,2.365,0,0,1-.209-1.14,3.986,3.986,0,0,1,.209-0.99q0.21-.689.48-1.5t0.57-1.68c0.086-.25.162-0.481,0.233-0.706-0.594.375-1.237,0.758-1.971,1.156a29.393,29.393,0,0,1-3.089,1.44,27.253,27.253,0,0,1-3.418,1.11,19.618,19.618,0,0,1-3.387.57,19.435,19.435,0,0,1-1.559,1.26,14.5,14.5,0,0,1-1.949,1.2,12.235,12.235,0,0,1-2.189.87,8.188,8.188,0,0,1-2.278.33,5.673,5.673,0,0,1-3.059-.72,4.746,4.746,0,0,1-1.709-1.8,6.694,6.694,0,0,1-.719-2.4,22.329,22.329,0,0,1-.15-2.52c0-.034,0-0.073,0-0.108-0.394.262-.815,0.534-1.293,0.828q-1.949,1.2-4.467,2.76a35.041,35.041,0,0,1-5.337,2.7,10.148,10.148,0,0,1-3.118.78,0.931,0.931,0,0,1-.959-0.42,2.262,2.262,0,0,1-.18-0.9,8.755,8.755,0,0,1,.24-1.71q0.238-1.11.629-2.46t0.84-2.85q0.45-1.5.869-2.94,0.3-1.08.57-1.95t0.45-1.53c0.159-.48.3-0.92,0.419-1.32q-2.1,2.16-4.5,4.44-2.038,1.921-4.617,4.32t-5.4,4.62a8.428,8.428,0,0,1-2.039,1.29,3.9,3.9,0,0,1-1.2.33q-1.2,0-1.2-1.68a7.293,7.293,0,0,1,.06-0.9,7.759,7.759,0,0,1,.27-1.2c0.139-.48.33-1.07,0.569-1.77,0.1-.3.226-0.637,0.364-1-0.567.395-1.164,0.789-1.8,1.184l-2.039,1.26q-1.02.63-1.739,1.11a48.462,48.462,0,0,1-5.187,3,8.491,8.491,0,0,1-3.028,1.02,0.6,0.6,0,0,1-.659-0.39,2.923,2.923,0,0,1-.12-0.87,8.134,8.134,0,0,1,.24-1.56q0.239-1.08.629-2.46t0.84-2.94q0.45-1.56.869-3,0.54-1.74,1.05-3.36t0.9-3q0.39-1.38.66-2.43a11.74,11.74,0,0,0,.329-1.65,3.69,3.69,0,0,0-.03-0.51q-0.03-.21-0.689-0.21a3,3,0,0,0-1.289.66,20.024,20.024,0,0,0-2.129,1.8q-1.2,1.14-2.609,2.64t-2.728,3.12a32.912,32.912,0,0,0-2.668,3.66q-0.99,1.62-1.829,3.36-0.84,1.8-1.469,2.85a9.513,9.513,0,0,1-1.139,1.59,2.866,2.866,0,0,1-.96.72,2.483,2.483,0,0,1-.929.18,0.6,0.6,0,0,1-.69-0.48,4.317,4.317,0,0,1-.09-0.66,6.89,6.89,0,0,1,.24-1.62,12.851,12.851,0,0,1,.9-2.34q0.48-1.02.72-1.62t0.54-1.32l2.4-8.28q0.239-.779.48-1.71T111,25.93q0.238-.9.419-1.62a8.959,8.959,0,0,1,.3-1.02,3.673,3.673,0,0,1,.93-1.68,6.318,6.318,0,0,1,1.5-1.17,8.66,8.66,0,0,1,1.559-.69,4.155,4.155,0,0,1,1.169-.24c0.279,0,.42.22,0.42,0.66a11.916,11.916,0,0,1-.51,1.83q-0.45,1.35-.869,2.61-0.54,1.68-.9,2.82t-0.689,2.07q-0.331.931-.6,1.77t-0.63,1.86h0.18a84.069,84.069,0,0,1,6.027-6.12q2.727-2.46,4.737-3.96a18.73,18.73,0,0,1,3.358-2.1,5.648,5.648,0,0,1,2.008-.6,0.62,0.62,0,0,1,.63.33,1.514,1.514,0,0,1,.09.81,23.472,23.472,0,0,1-1.049,4.59q-0.932,3.03-2.129,6.99-0.18.72-.63,2.13l-0.929,2.91q-0.481,1.5-.84,2.73a8.181,8.181,0,0,0-.359,1.53,5.841,5.841,0,0,1-.03.66q-0.031.24,0.569,0.24a4.783,4.783,0,0,0,1.769-.48q1.108-.48,2.4-1.2t2.758-1.65c0.884-.56,1.736-1.109,2.573-1.653l3.213-8.157q0.9-2.28,1.5-3.99t1.079-2.73a6.453,6.453,0,0,1,1.17-1.74,6.927,6.927,0,0,1,1.439-1.17,6.509,6.509,0,0,1,1.439-.66,4.035,4.035,0,0,1,1.109-.21c0.279,0,.42.22,0.42,0.66q-0.061.481-.21,1.38a11.815,11.815,0,0,1-.81,2.46l-3.657,9.42q-0.18.54-.54,1.41t-0.719,1.77q-0.36.9-.6,1.59a3.87,3.87,0,0,0-.24.87,3.673,3.673,0,0,0,.03.48q0.03,0.24.45,0.24a3.9,3.9,0,0,0,1.919-.9,29.946,29.946,0,0,0,2.818-2.34q1.378-1.26,2.458-2.25t2.039-1.98q0.959-.99,1.889-2.1t2.009-2.67a12.333,12.333,0,0,0,.689-1.53q0.328-.869.69-1.8a14.762,14.762,0,0,1,.839-1.8,8.062,8.062,0,0,1,1.08-1.53,5.9,5.9,0,0,1,2.068-1.44,5.028,5.028,0,0,1,1.649-.36,1.183,1.183,0,0,1,.63.21,0.965,0.965,0,0,1,.33.87,6.591,6.591,0,0,1-.63,2.34,21.228,21.228,0,0,1-2.368,3.9,28.248,28.248,0,0,0-1.11,3q-0.57,1.8-1.109,3.54-0.18.661-.66,2.16T153.6,38.29q-0.45,1.561-.81,2.85a9.97,9.97,0,0,0-.359,1.53q0,1.021.659,1.02a7.135,7.135,0,0,0,2.4-.45,21.086,21.086,0,0,0,2.638-1.17q1.379-.72,2.788-1.62c0.592-.378,1.173-0.756,1.757-1.134,0.043-.313.094-0.64,0.162-1q0.27-1.409.689-3.03t0.96-3.36q0.538-1.739,1.079-3.36-0.78.42-.779-0.36a1.129,1.129,0,0,1,.659-0.84,2.083,2.083,0,0,1,.66-0.42q0.718-1.859,1.679-4.02t1.949-4.2q0.988-2.039,1.918-3.81a29.9,29.9,0,0,1,1.709-2.91,39.593,39.593,0,0,1,8.065-9.21q3.689-2.79,6.446-2.79a4.212,4.212,0,0,1,1.769.3,1.951,1.951,0,0,1,.9.78,2.333,2.333,0,0,1,.3,1.02c0.019,0.36.03,0.7,0.03,1.02a6.421,6.421,0,0,1-.66,2.4,20.368,20.368,0,0,1-2.129,3.54,44.919,44.919,0,0,1-3.9,4.59,77.365,77.365,0,0,1-5.967,5.55q-1.8,1.561-3.807,3.24t-3.748,3.12q-0.48,1.08-.839,2.1-0.3.841-.66,1.77t-0.54,1.47h0.18a14.715,14.715,0,0,1,2.609-2.94,17.539,17.539,0,0,1,2.938-2.07,13.868,13.868,0,0,1,2.818-1.2,8.414,8.414,0,0,1,2.249-.39q2.937,0,3.957,1.56a7.231,7.231,0,0,1,1.02,4.02,11.569,11.569,0,0,1-.45,2.94,21.35,21.35,0,0,1-1.289,3.48,21.643,21.643,0,0,1-2.129,3.57,20.213,20.213,0,0,1-2.908,3.21,9.2,9.2,0,0,0,2.578-.45,29.863,29.863,0,0,0,3.058-1.11,31.22,31.22,0,0,0,2.968-1.44,21.7,21.7,0,0,0,2.3-1.432l0.791-2.468a3.291,3.291,0,0,1-.48-0.63,3.848,3.848,0,0,1-.06-0.93,1.406,1.406,0,0,1,.63-1.14,3.317,3.317,0,0,1,1.649-.6l0.54-1.32q0.538-1.26,1.019-2.61t0.929-2.58q0.45-1.229.84-2.22a11.02,11.02,0,0,1,.749-1.59,5.418,5.418,0,0,1,2.369-2.34,5.745,5.745,0,0,1,2.189-.6q0.419,0,.419.66a2.622,2.622,0,0,1-.18.69c-0.119.34-.28,0.741-0.479,1.2s-0.411.96-.63,1.5-0.41,1.05-.57,1.53q-0.48,1.32-.989,2.76t-0.929,2.7q-0.482,1.5-.96,2.94h0.9a15.577,15.577,0,0,0,2.158-.18,17.055,17.055,0,0,0,5.487-1.47,7.067,7.067,0,0,0,2.249-1.53q0.36-.9.509-1.32t0.51-1.5q0.659-2.039,1.259-3.69a8.258,8.258,0,0,1,1.8-2.91,5.917,5.917,0,0,1,1.02-.87q0.358-.21,1.079-0.57a2.984,2.984,0,0,1,.9-0.3,5.292,5.292,0,0,1,.72-0.06,1.09,1.09,0,0,1,.689.21,1.075,1.075,0,0,1,.27.87,10.032,10.032,0,0,1-1.2,4.11,38.053,38.053,0,0,1-3.238,5.37q-0.72,1.98-1.349,3.96t-1.139,3.66q-0.512,1.68-.78,3a10.891,10.891,0,0,0-.27,1.98,6.582,6.582,0,0,0,.06.87,0.513,0.513,0,0,0,.6.45,6.979,6.979,0,0,0,2.338-.45,21.032,21.032,0,0,0,2.639-1.17q1.378-.72,2.818-1.62t2.818-1.8l0.039,0.051c0.047-.118.091-0.229,0.141-0.351l3.238-8.22q0.9-2.28,1.5-3.99t1.079-2.73a6.476,6.476,0,0,1,1.17-1.74,6.927,6.927,0,0,1,1.439-1.17,6.509,6.509,0,0,1,1.439-.66,4.035,4.035,0,0,1,1.109-.21c0.279,0,.42.22,0.42,0.66-0.04.321-.111,0.78-0.21,1.38a11.861,11.861,0,0,1-.809,2.46l-3.658,9.42q-0.18.54-.54,1.41t-0.72,1.77c-0.239.6-.44,1.131-0.6,1.59a3.87,3.87,0,0,0-.24.87,3.673,3.673,0,0,0,.03.48q0.03,0.24.45,0.24a3.9,3.9,0,0,0,1.919-.9,29.946,29.946,0,0,0,2.818-2.34q1.379-1.26,2.458-2.25t2.039-1.98q0.959-.99,1.889-2.1t2.009-2.67a12.333,12.333,0,0,0,.689-1.53q0.33-.869.69-1.8a14.762,14.762,0,0,1,.839-1.8,8.062,8.062,0,0,1,1.08-1.53,5.9,5.9,0,0,1,2.068-1.44,5.028,5.028,0,0,1,1.649-.36,1.183,1.183,0,0,1,.63.21,0.965,0.965,0,0,1,.33.87,6.591,6.591,0,0,1-.63,2.34,21.172,21.172,0,0,1-2.368,3.9,28.248,28.248,0,0,0-1.11,3q-0.57,1.8-1.109,3.54-0.18.661-.66,2.16t-0.929,3.06q-0.45,1.561-.81,2.85a9.97,9.97,0,0,0-.359,1.53q0,1.021.659,1.02a7.135,7.135,0,0,0,2.4-.45,21.086,21.086,0,0,0,2.638-1.17q1.379-.72,2.789-1.62,1.331-.851,2.636-1.7c0.052-.134.1-0.26,0.151-0.4l3.238-8.22q0.66-1.679,1.08-2.76t0.659-1.77q0.24-.689.42-1.17t0.42-1.02a4.691,4.691,0,0,1,1.049-1.59,9.191,9.191,0,0,1,1.469-1.2,6.592,6.592,0,0,1,1.5-.75,3.873,3.873,0,0,1,1.14-.24q0.418,0,.419.66a6.447,6.447,0,0,1-.21,1.47,18.679,18.679,0,0,1-.809,2.37l-3.658,9.42q-0.3.841-.689,1.71t-0.69,1.68q-0.3.81-.51,1.41a3.072,3.072,0,0,0-.21.84,3.855,3.855,0,0,0,.03.48q0.03,0.24.45,0.24a3.9,3.9,0,0,0,1.919-.9,29.946,29.946,0,0,0,2.818-2.34q2.818-2.579,5.127-4.95a21.649,21.649,0,0,0,3.268-4.05,8.955,8.955,0,0,0,.69-1.5q0.329-.9.719-1.83t0.84-1.8a7.153,7.153,0,0,1,1.049-1.53,5.959,5.959,0,0,1,1.019-.87q0.36-.21,1.08-0.57a2.984,2.984,0,0,1,.9-0.3,5.292,5.292,0,0,1,.72-0.06,1.09,1.09,0,0,1,.689.21,1.075,1.075,0,0,1,.27.87,6.582,6.582,0,0,1-.06.87A5.192,5.192,0,0,1,273.706,22.3Zm-99.268-1.62a51.573,51.573,0,0,0,4.617-4.17q1.857-1.859,3.3-3.42a33.9,33.9,0,0,0,2.428-2.91,12.21,12.21,0,0,0,1.5-2.61,6.672,6.672,0,0,0,.51-2.52,3.024,3.024,0,0,0-.39-1.74,1.788,1.788,0,0,0-1.529-.54,4.651,4.651,0,0,0-2.908,1.38,19.935,19.935,0,0,0-3.328,3.99,57.751,57.751,0,0,0-3.628,6.45q-1.889,3.84-3.747,8.7Q172.4,22.271,174.438,20.68Zm-6.956,20.43-0.18.06a4.6,4.6,0,0,0,.87,3.3,2.826,2.826,0,0,0,2.188,1.2,3.693,3.693,0,0,0,1.05-.15,5.753,5.753,0,0,0,1.768-.93,5.272,5.272,0,0,1-3.747-.96A7.138,7.138,0,0,1,167.482,41.11Zm10.463-2.25A24.878,24.878,0,0,0,179,36.1a17.768,17.768,0,0,0,.6-2.49,12.226,12.226,0,0,0,.18-1.8,6.334,6.334,0,0,0-.749-3.63,2.78,2.78,0,0,0-2.369-.99,5.6,5.6,0,0,0-2.278.57,7.419,7.419,0,0,0-2.369,1.77,10.435,10.435,0,0,0-1.889,3.03,11.226,11.226,0,0,0-.779,4.41,9.656,9.656,0,0,0,.42,3.09,4.97,4.97,0,0,0,1.139,1.95,3.555,3.555,0,0,0,1.739.96,8.21,8.21,0,0,0,2.278.18,8.339,8.339,0,0,0,1.439-1.62A13.384,13.384,0,0,0,177.945,38.86ZM91.21,45.85a6.475,6.475,0,0,1-1.979-.24,12.472,12.472,0,0,1-5.936,1.5,6.793,6.793,0,0,1-2.1-.33,4.694,4.694,0,0,1-1.829-1.11,5.487,5.487,0,0,1-1.289-2.04,8.611,8.611,0,0,1-.48-3.06,15.267,15.267,0,0,1,.3-3.12q0.3-1.44.84-3.24a29.716,29.716,0,0,1,.989-2.85Q80.3,29.951,80.9,28.72a22.557,22.557,0,0,1,1.229-2.22A9.114,9.114,0,0,1,83.3,24.97a4.112,4.112,0,0,1,1.079-.75,3.309,3.309,0,0,1,1.5-.33,1.612,1.612,0,0,1,.869.18,2.936,2.936,0,0,1,.45.36h0.18q0.958-.9,1.979-1.77A15.538,15.538,0,0,1,91.54,21.1a12.837,12.837,0,0,1,2.548-1.14,10.244,10.244,0,0,1,3.178-.45,5.279,5.279,0,0,1,3.807,1.47q1.53,1.471,1.529,5.01a15.437,15.437,0,0,1-.839,4.74,24.588,24.588,0,0,1-2.339,5.07,29.049,29.049,0,0,1-3.478,4.65,18.835,18.835,0,0,1-4.317,3.54,1.868,1.868,0,0,0,.6.15,9.636,9.636,0,0,0,1.5.09,15.007,15.007,0,0,0,5.846-1.41,34.127,34.127,0,0,0,6.686-3.93l0.54,0.72a49.626,49.626,0,0,1-7.466,4.5A18.541,18.541,0,0,1,91.21,45.85Zm-7.166-3.6a9.882,9.882,0,0,1-.929-2.85,12.56,12.56,0,0,1-.15-2.85q0.09-1.379.21-2.34H83q-0.18.54-.45,1.5a15.447,15.447,0,0,0-.39,3,7.875,7.875,0,0,0,.27,3,4.766,4.766,0,0,0,.989,1.77,3.072,3.072,0,0,0,1.229.84,3.3,3.3,0,0,0,.93.21h0.6A5.654,5.654,0,0,1,84.045,42.25Zm8.994-1.47a19.124,19.124,0,0,0,2.578-4.02,23.171,23.171,0,0,0,1.619-4.53,18.167,18.167,0,0,0,.57-4.26,6.526,6.526,0,0,0-.9-3.57,3.475,3.475,0,0,0-3.178-1.41,7.974,7.974,0,0,0-1.949.36,6.215,6.215,0,0,0-2.309,1.2,8.049,8.049,0,0,0-1.319,1.44,13.911,13.911,0,0,0-1.379,2.34A19.7,19.7,0,0,0,85.6,31.54a21.61,21.61,0,0,0-.69,4.05q0,0.54.03,1.71a8.65,8.65,0,0,0,.45,2.46,6.916,6.916,0,0,0,1.379,2.4,4.52,4.52,0,0,0,2.818,1.41A10.77,10.77,0,0,0,93.039,40.78ZM72.472,35.83a36.6,36.6,0,0,1-3.808,4.89,23.879,23.879,0,0,1-3.778,3.39,26.97,26.97,0,0,1-3.448,2.01,8.435,8.435,0,0,1-3.748.93,2.225,2.225,0,0,1-1.649-.48,1.541,1.541,0,0,1-.45-1.08,6.278,6.278,0,0,1,.69-2.7,15.336,15.336,0,0,1,1.769-2.82,31.471,31.471,0,0,1,5.157-5.16,53.366,53.366,0,0,1,4.527-3.21q2.069-1.29,3.748-2.19a5.752,5.752,0,0,0,.3-1.68V26.17a7.049,7.049,0,0,0-.3-2.25,3.577,3.577,0,0,0-.81-1.38,2.624,2.624,0,0,0-1.139-.69,4.889,4.889,0,0,0-1.349-.18,6.886,6.886,0,0,0-3.448,1.32,26.486,26.486,0,0,0-4.767,4.2q-0.6,1.381-1.349,3.39T57,35.02q-0.87,2.43-1.859,5.25t-2.009,5.76q-0.96,2.7-1.889,5.37t-1.739,5.1Q48.7,58.93,48.037,61t-1.079,3.57a6.928,6.928,0,0,0-.09.9,8.094,8.094,0,0,1-.15,1.2,5,5,0,0,1-.51,1.26A5.674,5.674,0,0,1,44.8,69.49a4.376,4.376,0,0,1-2.7,1.02,1.151,1.151,0,0,1-.84-0.36,1.657,1.657,0,0,1-.36-1.2,9.657,9.657,0,0,1,.24-1.71,20.9,20.9,0,0,1,1.079-3.27q1.56-4.32,3.178-8.58,1.38-3.66,2.968-7.89L49.5,44.491a18.528,18.528,0,0,1-4.219,2.949,11.779,11.779,0,0,1-5.1,1.23,4.844,4.844,0,0,1-1.889-.42,6.858,6.858,0,0,1-2.039-1.44,13.259,13.259,0,0,1-2.069-2.73,23.615,23.615,0,0,1-1.919-4.29q-0.72-1.98-1.409-4.14T29.538,31.6q-0.63-1.89-1.109-3.39t-0.72-2.16a27.35,27.35,0,0,1-1.829,2.61,21.755,21.755,0,0,0-2.668,5.13q-0.481,1.14-.869,2.28t-0.69,2.04q-0.36,1.08-.6,2.1-0.3.9-.48,1.65a4.569,4.569,0,0,1-.42,1.17,4.369,4.369,0,0,1-.719,1.2,5.607,5.607,0,0,1-1.409,1.29,3.183,3.183,0,0,1-1.769.63A1.041,1.041,0,0,1,15,45.07a8.283,8.283,0,0,1,.33-1.5q0.329-1.2.9-3.06t1.319-4.26q0.749-2.4,1.589-5.1,0.778-2.52,1.589-5.19t1.619-5.31q0.81-2.639,1.589-5.07t1.5-4.53q0.239-.66.54-1.47t0.6-1.59q0.3-.779.6-1.44a7.467,7.467,0,0,1,.54-1.02A3.175,3.175,0,0,1,28.7,4.6a8.72,8.72,0,0,1,1.289-.66,6.778,6.778,0,0,1,1.289-.39,5.82,5.82,0,0,1,1.049-.12c0.159,0,.24.261,0.24,0.78a2.534,2.534,0,0,1-.21.84q-0.211.54-.51,1.2t-0.6,1.35q-0.3.691-.54,1.29-0.6,1.561-1.5,4.29T27.38,18.79q-0.93,2.88-1.709,5.43t-1.139,3.81l0.18,0.06,2.4-3.24q0.12-.6.36-1.53a4.466,4.466,0,0,1,1.259-1.95,2.432,2.432,0,0,1,.959-0.6,2.868,2.868,0,0,1,.84-0.18q1.5-1.679,2.728-3.03t2.369-2.55q1.138-1.2,2.219-2.31t2.279-2.31A19.993,19.993,0,0,1,42.67,8.23a21.841,21.841,0,0,1,2.7-1.65,14.926,14.926,0,0,1,2.578-1.05A8.05,8.05,0,0,1,50.2,5.17c0.159,0,.36.01,0.6,0.03a3.128,3.128,0,0,1,.719.15,1.369,1.369,0,0,1,.6.39,1.094,1.094,0,0,1,.24.75,4.244,4.244,0,0,1-.51,1.95A8.467,8.467,0,0,1,50.5,10.33a14.008,14.008,0,0,1-1.889,1.68,12.194,12.194,0,0,1-2.069,1.26l-0.24-.36a7.652,7.652,0,0,0,1.019-1.41,3,3,0,0,0,.42-1.47,1.011,1.011,0,0,0-1.2-1.08,6.777,6.777,0,0,0-2.848.9,15.95,15.95,0,0,0-3.748,2.82q-1.32,1.26-2.728,2.76T34.6,18.19q-1.439,1.561-2.818,3,0.18,0.36.42,0.9,0.18,0.481.39,1.08t0.51,1.38q0.419,1.44.959,3t1.049,3.06q0.509,1.5,1.02,2.91t0.929,2.55a32.139,32.139,0,0,0,3.178,6.54q1.678,2.52,3.658,2.52a6.466,6.466,0,0,0,3.088-.75,22.244,22.244,0,0,0,3.48-2.468l0.867-2.3q0.779-2.1,1.409-3.84t1.2-3.39q0.569-1.65,1.2-3.36t1.349-3.81q0.659-1.74,1.259-3.57a6.636,6.636,0,0,1,1.079-2.31,6.9,6.9,0,0,1,2.009-1.41,5.009,5.009,0,0,1,1.409-.51,2.086,2.086,0,0,1,.39.03,0.284,0.284,0,0,1,.15.33,4.05,4.05,0,0,1-.18.81q-0.18.63-.45,1.56T61.5,22.15q-0.39,1.08-.749,2.04l0.3,0.06a22.614,22.614,0,0,1,2.488-2.13,28.531,28.531,0,0,1,2.878-1.89,19.153,19.153,0,0,1,2.848-1.35,7.213,7.213,0,0,1,2.459-.51,4.788,4.788,0,0,1,3.718,1.32q1.2,1.32,1.2,4.68a15.414,15.414,0,0,1-1.2,5.79A32.681,32.681,0,0,1,72.472,35.83Zm-2.758-3.75q-0.87.45-1.889,1.08T65.7,34.6a16.982,16.982,0,0,0-2.009,1.71q-0.78.78-1.559,1.62a13.8,13.8,0,0,0-1.379,1.74,11.431,11.431,0,0,0-.989,1.8,4.626,4.626,0,0,0-.39,1.86q0,1.08,1.679,1.08a4.658,4.658,0,0,0,1.859-.45,7.136,7.136,0,0,0,2.1-1.53,22.342,22.342,0,0,0,1.529-1.74,24.51,24.51,0,0,0,1.739-2.49,25.419,25.419,0,0,0,1.619-3.12,19.3,19.3,0,0,0,1.169-3.63A13.442,13.442,0,0,0,69.714,32.08ZM28.722,9.071s1.685-5.505-1.18-5.342c-5.337-.382-19.889,10.03-25.17,16.407C-0.1,22.1.8,16.321,0.8,16.321,7.6,7.654,25.127,1.93,29.509,1.44s3.836,1.09,3.5,1.526" transform="translate(-0.656)"/>
</svg>
