<svg xmlns="http://www.w3.org/2000/svg" width="589" height="247" viewBox="0 0 589 247">
  <defs>
    <style>
      .cls-1 {
        fill: #fff;
        fill-rule: evenodd;
      }
    </style>
  </defs>
  <path id="укр" class="cls-1" d="M588,81s2-4.167-2-5c-10.5.833-12,11-12,11s-8.5,20.833-12,22c-15.833-18.667-35.667,18.5-37,26,0.333,1-13.917,12.026-16.5,1.7V113.608s-1.459-6.6-7.146-6.024c0.291-2.152-2.042-7.028-2.042-7.028s-6.125-7.171-14.292-3.012c-8.6,2.582-15.168,21.8-15.313,26.1,1.166,1.435-26.4,14.343-34.71,13.052-4.667-1-1.021-5.02-1.021-5.02a73.826,73.826,0,0,1,10.209-5.02c4.958-1.864,20.125-8.318,19.4-18.071-0.146-2.438-3.208-7.028-11.229-7.028S435,105.576,435,105.576l-1.021-1s0.583-6.741-6.125-6.024S415.6,109.592,415.6,109.592s-17.209,25.529-22.459,25.1c-2.917.574,0-9.036,0-9.036s8.167-19.936,17.355-31.123c5.25-11.618-3.063-11.9-4.083-12.048-3.355-.574-10.209,2.008-10.209,2.008s-25.522,14.2-27.564,14.056c-4.666,0-6.271-2.151-7.146-3.012s-9.333-3.729-16.334,1-25.23,13.482-26.542,13.052-15.605-1.148-21.439,3.012c-1.458-.431,1.021-13.052,1.021-13.052s50.315-37.577,50.023-92.366c0.437-1.577-4.084-9.179-14.292-5.02-17.5,8.892-44.919,62.82-47.981,102.406-5.688,4.3-20.418,10.04-20.418,10.04s-6.854-7.6-12.25-6.024-12.25,8.032-12.25,8.032-23.772,17.067-29.606,18.071c-7.875,2.295-4.083-3.012-4.083-3.012s0.729-3.012,3.062-4.016S239.136,100.7,238.99,92.524c0.146-1-4.084-5.307-11.23-2.008s-15.313,8.605-15.313,9.036-1.6,1.147-2.042-2.008c0.73-.861,8.167-34.135,8.167-34.135s6.271-7.028,7.146-7.028,1.021-5.737-3.062-8.032c-9.188-.717-11.23,3.729-12.251,6.024s-49.9,59.75-55.8,62.247c0,0,.146-3.586,1.021-4.016s13.125-29.259,11.229-33.132c0,0-12.1-7.745-30.626,11.044-2.187,4.733,3.063,3.012,3.063,3.012L149.5,87.5s2.917-2.008,2.042,2.008c-2.479,3.155-23.772,27.538-14.292,44.175,5.25,7.171,13.271,0,13.271,0s0.292-5.45,2.042-8.032,48.771-48.155,49.678-50.2l-29.6,109.433s-1.6,8.175,2.042,13.052c4.229,7.171,11.23,10.039,13.271,9.036,3.355-1.578,4.375-7.6,4.084-9.036s-2.917-5.594-2.042-10.04S200.2,140.715,200.2,140.715a13.221,13.221,0,0,0,10.208,0c5.542-2.3,29.606-18.645,31.647-22.088,1.167-.717-7.291,25.53,3.063,31.124,13.417,5.306,26.105-14.486,26.543-16.064s0.437-12.621-3.063-16.063c-1.021-.144,15.9-7.172,16.334-8.032s-7.875,46.039,16.334,55.219c12.25,1.434,15.021-8.606,15.313-10.04s1.9-15.634-2.042-21.084c-0.583-1.864-9.625-10.9-9.188-12.048,0.438-1.721,2.042-7.458,6.126-8.031,4.229,0.573,19.688-3.729,29.605-10.04,1.75-1.148,4.813-1.148,5.1,2.008-0.437,3.3-9.625,13.338-6.125,24.1,4.959,8.606,14.292,6.024,14.292,6.024s7.146-2.295,9.188-17.068c-0.146-1.721-1.021-12.047-1.021-12.047s-1.167-4.877,0-5.02,9.042,0.43,12.251-2.008,22.75-10.9,22.459-6.024-18.242,25.448-18.355,28.111c-2.957,5.422-4.1,15.347-3.084,17.068s2.188,12.478,15.313,9.036c3.063-.861,7.967-6.745,10.209-10.04-0.291-1,18.376-26.1,18.376-26.1s2.042-1.148,2.042,2.008-2.625,67.123-2.042,68.27,2.187,10.614,9.188,10.04c4.229-2.3,3.354-8.462,3.062-9.036s-2.916-14.486-3.062-16.064,1.021-26.1,1.021-26.1,22.167-2.3,39.814-13.052c-1.459,16.925,8.458,18.646,11.229,19.076,5.1,0.574,12.251-10.04,12.251-10.04s3.791,14.056,14.292,14.056S521.909,142.7,523,141s1,0,1,0-2.636,17.7,6,18c13.03,0.3,24-28,24-28s1.758-.03,1,3-7.727,33.727-10,38c-1.061.636-14.375-.5-24,2s-38,10.125-46,33c-5.875,22,26.375,24.125,42,17,30.125-15.875,41-50,41-50ZM227.76,102.564c-0.437-1,2.771-5.307-3.062-5.02,0,0-16.043,2.008-20.418,30.119,1.021,2.3,1.021,0,1.021,0A143.234,143.234,0,0,0,227.76,102.564Zm31.647,18.072s-10.792,14.2-7.146,20.079a2.493,2.493,0,0,0,2.042,1S263.928,130.532,259.407,120.636Zm85.753-98.39c-0.145-.717,1.313-9.322-4.083-8.032S308.555,43.9,299.221,94.532C299.221,94.532,331.452,70.437,345.16,22.246ZM300.242,130.675c-1.167-1-5.1-8.031-5.1-8.031s-1.9,22.087,2.041,23.091c2.917-1.721,3.063-4.016,3.063-4.016S301.992,133.687,300.242,130.675Zm57.169-25.1s-8.9,16.207-7.146,18.071,3.062-1,3.062-1S360.036,113.321,357.411,105.576Zm76.565,19.075s7.73-8.318,8.167-8.031,0.583-1.865-4.083-3.012-6.855,6.167-7.147,7.028c0,0-.729,6.167,1.021,6.023A7.166,7.166,0,0,1,433.976,124.651Zm47.981-2.007c-1.75.286-1.167,10.756,1.021,11.043s5.1-3.012,5.1-3.012l7.146-16.063S483.707,122.357,481.957,122.644ZM162.769,64.413c-9.334-6.884-2.479-11.761-1.021-16.064-13.709-7.171-65.336,49.2-65.336,49.2s7.73,18.358,49,78.31c27.272,37,45.064,46.757,47.981,48.191,11.229,4.877,20.126-2.008,20.417-3.012s1.9,0,3.063,0c5.979,12.478-5.98,20.653-10.209,23.092-37.48,16.063-84.258-73.951-86.774-79.314-4.229-6.455-27.709-51.634-30.626-58.231-17.646,19.362-20.417,42.6-20.417,43.171s-5.25,3.442-18.376,3.012c-5.688.143-7.438-6.024-6.125-9.036C65.932,100.843,72.932,61.4,72.932,61.4s4.375-14.486-3.063-14.056c-13.855-1-51.627,26.39-65.336,43.171C-1.883,95.68.45,80.476,0.45,80.476,18.1,57.672,63.6,42.612,74.974,41.321s16.188,2.868,15.313,4.016c3.1,9.279-13.378,64.8-14.255,67.2,0.966-2.3,54.114-60.957,83.674-71.218,5.834-2.151,18.813,0,16.334,9.036C175.311,51.791,173.561,63.7,162.769,64.413ZM543,175s-53.667,1.333-60,33c0,8.167,10,9,10,9s30.338,6.881,49.483-41.178C542.15,176.488,542.851,175.261,543,175Zm12-59s-1-.667-3,1c-1.97,1.642-8.791,4.254-13.774,20.259q-0.114.366-.226,0.741C539,141.167,555,116,555,116Z"/>
</svg>
